# xmcd
#
# Track frame offsets: 
#        150
#        13844
#        30296
#        50265
#        70666
#        85702
#        98501
#        115877
#        132603
#        147311
#        165773
#
# Disc length: 4706 seconds
#
# Revision: 0
# Processed by: cddbd v1.5.2PL0 Copyright (c) Steve Scherf et al.
# Submitted via: ExactAudioCopyFreeDBPlugin 1.0
#
DISCID=8012600b
DTITLE=David Lee - The Wichita Kid
DYEAR=2015
DGENRE=Country
TTITLE0=Wichita
TTITLE1=Hungry Dog
TTITLE2=Hurtin'
TTITLE3=Nothin' Left
TTITLE4=Diggin'
TTITLE5=Bandwagon
TTITLE6=Song on the Radio
TTITLE7=Daddy's Girl
TTITLE8=Rowdy
TTITLE9=Whistlin'
TTITLE10=Director's Cut: "The Wichita Kid" The Full Concept Recording
EXTD=
EXTT0=
EXTT1=
EXTT2=
EXTT3=
EXTT4=
EXTT5=
EXTT6=
EXTT7=
EXTT8=
EXTT9=
EXTT10=
PLAYORDER=
